<svg width="1024" height="753" viewBox="0 0 1024 753" fill="none" xmlns="http://www.w3.org/2000/svg">
<g opacity="0.2" filter="url(#filter0_f_175_198)">
<ellipse cx="536.5" cy="108" rx="670.5" ry="350" fill="#338AF3"/>
</g>
<path d="M57.0349 344C58.5302 344 59.6622 344.63 60.4308 345.891C61.2134 347.138 61.6047 348.953 61.6047 351.336C61.6047 353.719 61.2134 355.541 60.4308 356.802C59.6622 358.063 58.5302 358.693 57.0349 358.693C55.5536 358.693 54.4216 358.063 53.639 356.802C52.8564 355.541 52.4651 353.719 52.4651 351.336C52.4651 348.967 52.8564 347.152 53.639 345.891C54.4216 344.63 55.5536 344 57.0349 344ZM53.9534 351.336C53.9534 353.026 54.1072 354.35 54.4146 355.306L59.0683 346.099C58.5791 345.448 57.9013 345.122 57.0349 345.122C56.0706 345.122 55.316 345.635 54.771 346.66C54.2259 347.672 53.9534 349.23 53.9534 351.336ZM57.0349 357.55C58.0131 357.55 58.7748 357.044 59.3198 356.033C59.8648 355.008 60.1373 353.442 60.1373 351.336C60.1373 349.549 59.9627 348.163 59.6133 347.18L54.9596 356.469C55.4627 357.19 56.1545 357.55 57.0349 357.55Z" fill="url(#paint0_linear_175_198)" fill-opacity="0.6"/>
<path d="M58.2926 381.135H61.3741V382.236H53.3874V381.135H56.9511V369.455L53.5551 371.471L52.9682 370.536L57.1607 367.959H58.2926V381.135Z" fill="url(#paint1_linear_175_198)" fill-opacity="0.6"/>
<path d="M57.0349 391.502C58.5302 391.502 59.6622 392.133 60.4308 393.393C61.2134 394.64 61.6047 396.455 61.6047 398.838C61.6047 401.221 61.2134 403.043 60.4308 404.304C59.6622 405.565 58.5302 406.195 57.0349 406.195C55.5536 406.195 54.4216 405.565 53.639 404.304C52.8564 403.043 52.4651 401.221 52.4651 398.838C52.4651 396.469 52.8564 394.654 53.639 393.393C54.4216 392.133 55.5536 391.502 57.0349 391.502ZM53.9534 398.838C53.9534 400.529 54.1072 401.852 54.4146 402.808L59.0683 393.601C58.5791 392.95 57.9013 392.624 57.0349 392.624C56.0706 392.624 55.316 393.137 54.771 394.162C54.2259 395.174 53.9534 396.732 53.9534 398.838ZM57.0349 405.052C58.0131 405.052 58.7748 404.546 59.3198 403.535C59.8648 402.51 60.1373 400.944 60.1373 398.838C60.1373 397.051 59.9627 395.665 59.6133 394.682L54.9596 403.971C55.4627 404.692 56.1545 405.052 57.0349 405.052Z" fill="url(#paint2_linear_175_198)" fill-opacity="0.6"/>
<path d="M58.2926 428.637H61.3741V429.738H53.3874V428.637H56.9511V416.957L53.5551 418.973L52.9682 418.038L57.1607 415.461H58.2926V428.637Z" fill="url(#paint3_linear_175_198)" fill-opacity="0.6"/>
<path d="M58.2926 452.388H61.3741V453.489H53.3874V452.388H56.9511V440.708L53.5551 442.724L52.9682 441.789L57.1607 439.212H58.2926V452.388Z" fill="url(#paint4_linear_175_198)" fill-opacity="0.6"/>
<path d="M57.0349 462.755C58.5302 462.755 59.6622 463.386 60.4308 464.646C61.2134 465.893 61.6047 467.708 61.6047 470.091C61.6047 472.474 61.2134 474.296 60.4308 475.557C59.6622 476.818 58.5302 477.448 57.0349 477.448C55.5536 477.448 54.4216 476.818 53.639 475.557C52.8564 474.296 52.4651 472.474 52.4651 470.091C52.4651 467.722 52.8564 465.907 53.639 464.646C54.4216 463.386 55.5536 462.755 57.0349 462.755ZM53.9534 470.091C53.9534 471.782 54.1072 473.105 54.4146 474.061L59.0683 464.854C58.5791 464.203 57.9013 463.878 57.0349 463.878C56.0706 463.878 55.316 464.39 54.771 465.415C54.2259 466.427 53.9534 467.985 53.9534 470.091ZM57.0349 476.305C58.0131 476.305 58.7748 475.8 59.3198 474.788C59.8648 473.763 60.1373 472.197 60.1373 470.091C60.1373 468.304 59.9627 466.919 59.6133 465.935L54.9596 475.225C55.4627 475.945 56.1545 476.305 57.0349 476.305Z" fill="url(#paint5_linear_175_198)" fill-opacity="0.6"/>
<path d="M58.2926 499.89H61.3741V500.992H53.3874V499.89H56.9511V488.21L53.5551 490.226L52.9682 489.291L57.1607 486.714H58.2926V499.89Z" fill="url(#paint6_linear_175_198)" fill-opacity="0.6"/>
<path d="M57.0349 510.257C58.5302 510.257 59.6622 510.888 60.4308 512.149C61.2134 513.396 61.6047 515.211 61.6047 517.594C61.6047 519.977 61.2134 521.798 60.4308 523.059C59.6622 524.32 58.5302 524.95 57.0349 524.95C55.5536 524.95 54.4216 524.32 53.639 523.059C52.8564 521.798 52.4651 519.977 52.4651 517.594C52.4651 515.224 52.8564 513.409 53.639 512.149C54.4216 510.888 55.5536 510.257 57.0349 510.257ZM53.9534 517.594C53.9534 519.284 54.1072 520.607 54.4146 521.563L59.0683 512.356C58.5791 511.705 57.9013 511.38 57.0349 511.38C56.0706 511.38 55.316 511.892 54.771 512.918C54.2259 513.929 53.9534 515.488 53.9534 517.594ZM57.0349 523.807C58.0131 523.807 58.7748 523.302 59.3198 522.29C59.8648 521.265 60.1373 519.699 60.1373 517.594C60.1373 515.806 59.9627 514.421 59.6133 513.437L54.9596 522.727C55.4627 523.447 56.1545 523.807 57.0349 523.807Z" fill="url(#paint7_linear_175_198)" fill-opacity="0.6"/>
<path d="M57.0349 534.008C58.5302 534.008 59.6622 534.639 60.4308 535.9C61.2134 537.147 61.6047 538.962 61.6047 541.345C61.6047 543.728 61.2134 545.549 60.4308 546.81C59.6622 548.071 58.5302 548.701 57.0349 548.701C55.5536 548.701 54.4216 548.071 53.639 546.81C52.8564 545.549 52.4651 543.728 52.4651 541.345C52.4651 538.975 52.8564 537.16 53.639 535.9C54.4216 534.639 55.5536 534.008 57.0349 534.008ZM53.9534 541.345C53.9534 543.035 54.1072 544.358 54.4146 545.314L59.0683 536.107C58.5791 535.456 57.9013 535.131 57.0349 535.131C56.0706 535.131 55.316 535.643 54.771 536.669C54.2259 537.68 53.9534 539.239 53.9534 541.345ZM57.0349 547.558C58.0131 547.558 58.7748 547.053 59.3198 546.041C59.8648 545.016 60.1373 543.451 60.1373 541.345C60.1373 539.557 59.9627 538.172 59.6133 537.188L54.9596 546.478C55.4627 547.198 56.1545 547.558 57.0349 547.558Z" fill="url(#paint8_linear_175_198)" fill-opacity="0.6"/>
<path d="M58.2926 571.143H61.3741V572.245H53.3874V571.143H56.9511V559.464L53.5551 561.48L52.9682 560.544L57.1607 557.967H58.2926V571.143Z" fill="url(#paint9_linear_175_198)" fill-opacity="0.6"/>
<path d="M57.0349 581.511C58.5302 581.511 59.6622 582.141 60.4308 583.402C61.2134 584.649 61.6047 586.464 61.6047 588.847C61.6047 591.23 61.2134 593.052 60.4308 594.312C59.6622 595.573 58.5302 596.204 57.0349 596.204C55.5536 596.204 54.4216 595.573 53.639 594.312C52.8564 593.052 52.4651 591.23 52.4651 588.847C52.4651 586.478 52.8564 584.663 53.639 583.402C54.4216 582.141 55.5536 581.511 57.0349 581.511ZM53.9534 588.847C53.9534 590.537 54.1072 591.86 54.4146 592.816L59.0683 583.61C58.5791 582.958 57.9013 582.633 57.0349 582.633C56.0706 582.633 55.316 583.145 54.771 584.171C54.2259 585.182 53.9534 586.741 53.9534 588.847ZM57.0349 595.061C58.0131 595.061 58.7748 594.555 59.3198 593.543C59.8648 592.518 60.1373 590.953 60.1373 588.847C60.1373 587.059 59.9627 585.674 59.6133 584.69L54.9596 593.98C55.4627 594.7 56.1545 595.061 57.0349 595.061Z" fill="url(#paint10_linear_175_198)" fill-opacity="0.6"/>
<path d="M58.2926 618.645H61.3741V619.747H53.3874V618.645H56.9511V606.966L53.5551 608.982L52.9682 608.046L57.1607 605.469H58.2926V618.645Z" fill="url(#paint11_linear_175_198)" fill-opacity="0.6"/>
<path d="M58.2926 642.396H61.3741V643.498H53.3874V642.396H56.9511V630.717L53.5551 632.733L52.9682 631.798L57.1607 629.221H58.2926V642.396Z" fill="url(#paint12_linear_175_198)" fill-opacity="0.6"/>
<path d="M95.9651 391.502C97.4604 391.502 98.5924 392.133 99.361 393.393C100.144 394.64 100.535 396.455 100.535 398.838C100.535 401.221 100.144 403.043 99.361 404.304C98.5924 405.565 97.4604 406.195 95.9651 406.195C94.4838 406.195 93.3518 405.565 92.5692 404.304C91.7866 403.043 91.3953 401.221 91.3953 398.838C91.3953 396.469 91.7866 394.654 92.5692 393.393C93.3518 392.133 94.4838 391.502 95.9651 391.502ZM92.8836 398.838C92.8836 400.529 93.0374 401.852 93.3448 402.808L97.9985 393.601C97.5093 392.95 96.8315 392.624 95.9651 392.624C95.0008 392.624 94.2462 393.137 93.7012 394.162C93.1561 395.174 92.8836 396.732 92.8836 398.838ZM95.9651 405.052C96.9433 405.052 97.705 404.546 98.25 403.535C98.795 402.51 99.0675 400.944 99.0675 398.838C99.0675 397.051 98.8928 395.665 98.5435 394.682L93.8898 403.971C94.3929 404.692 95.0847 405.052 95.9651 405.052Z" fill="url(#paint13_linear_175_198)" fill-opacity="0.6"/>
<path d="M97.2228 428.637H100.304V429.738H92.3176V428.637H95.8812V416.957L92.4853 418.973L91.8984 418.038L96.0909 415.461H97.2228V428.637Z" fill="url(#paint14_linear_175_198)" fill-opacity="0.6"/>
<path d="M95.9651 439.004C97.4604 439.004 98.5924 439.635 99.361 440.895C100.144 442.142 100.535 443.957 100.535 446.34C100.535 448.723 100.144 450.545 99.361 451.806C98.5924 453.067 97.4604 453.697 95.9651 453.697C94.4838 453.697 93.3518 453.067 92.5692 451.806C91.7866 450.545 91.3953 448.723 91.3953 446.34C91.3953 443.971 91.7866 442.156 92.5692 440.895C93.3518 439.635 94.4838 439.004 95.9651 439.004ZM92.8836 446.34C92.8836 448.031 93.0374 449.354 93.3448 450.31L97.9985 441.103C97.5093 440.452 96.8315 440.126 95.9651 440.126C95.0008 440.126 94.2462 440.639 93.7012 441.664C93.1561 442.676 92.8836 444.234 92.8836 446.34ZM95.9651 452.554C96.9433 452.554 97.705 452.049 98.25 451.037C98.795 450.012 99.0675 448.446 99.0675 446.34C99.0675 444.553 98.8928 443.168 98.5435 442.184L93.8898 451.474C94.3929 452.194 95.0847 452.554 95.9651 452.554Z" fill="url(#paint15_linear_175_198)" fill-opacity="0.6"/>
<path d="M95.9651 462.755C97.4604 462.755 98.5924 463.386 99.361 464.646C100.144 465.893 100.535 467.708 100.535 470.091C100.535 472.474 100.144 474.296 99.361 475.557C98.5924 476.818 97.4604 477.448 95.9651 477.448C94.4838 477.448 93.3518 476.818 92.5692 475.557C91.7866 474.296 91.3953 472.474 91.3953 470.091C91.3953 467.722 91.7866 465.907 92.5692 464.646C93.3518 463.386 94.4838 462.755 95.9651 462.755ZM92.8836 470.091C92.8836 471.782 93.0374 473.105 93.3448 474.061L97.9985 464.854C97.5093 464.203 96.8315 463.878 95.9651 463.878C95.0008 463.878 94.2462 464.39 93.7012 465.415C93.1561 466.427 92.8836 467.985 92.8836 470.091ZM95.9651 476.305C96.9433 476.305 97.705 475.8 98.25 474.788C98.795 473.763 99.0675 472.197 99.0675 470.091C99.0675 468.304 98.8928 466.919 98.5435 465.935L93.8898 475.225C94.3929 475.945 95.0847 476.305 95.9651 476.305Z" fill="url(#paint16_linear_175_198)" fill-opacity="0.6"/>
<path d="M97.2228 499.89H100.304V500.992H92.3176V499.89H95.8812V488.21L92.4853 490.226L91.8984 489.291L96.0909 486.714H97.2228V499.89Z" fill="url(#paint17_linear_175_198)" fill-opacity="0.6"/>
<path d="M95.9651 510.257C97.4604 510.257 98.5924 510.888 99.361 512.149C100.144 513.396 100.535 515.211 100.535 517.594C100.535 519.977 100.144 521.798 99.361 523.059C98.5924 524.32 97.4604 524.95 95.9651 524.95C94.4838 524.95 93.3518 524.32 92.5692 523.059C91.7866 521.798 91.3953 519.977 91.3953 517.594C91.3953 515.224 91.7866 513.409 92.5692 512.149C93.3518 510.888 94.4838 510.257 95.9651 510.257ZM92.8836 517.594C92.8836 519.284 93.0374 520.607 93.3448 521.563L97.9985 512.356C97.5093 511.705 96.8315 511.38 95.9651 511.38C95.0008 511.38 94.2462 511.892 93.7012 512.918C93.1561 513.929 92.8836 515.488 92.8836 517.594ZM95.9651 523.807C96.9433 523.807 97.705 523.302 98.25 522.29C98.795 521.265 99.0675 519.699 99.0675 517.594C99.0675 515.806 98.8928 514.421 98.5435 513.437L93.8898 522.727C94.3929 523.447 95.0847 523.807 95.9651 523.807Z" fill="url(#paint18_linear_175_198)" fill-opacity="0.6"/>
<path d="M97.2228 547.392H100.304V548.494H92.3176V547.392H95.8812V535.713L92.4853 537.728L91.8984 536.793L96.0909 534.216H97.2228V547.392Z" fill="url(#paint19_linear_175_198)" fill-opacity="0.6"/>
<path d="M95.9651 557.76C97.4604 557.76 98.5924 558.39 99.361 559.651C100.144 560.898 100.535 562.713 100.535 565.096C100.535 567.479 100.144 569.301 99.361 570.561C98.5924 571.822 97.4604 572.453 95.9651 572.453C94.4838 572.453 93.3518 571.822 92.5692 570.561C91.7866 569.301 91.3953 567.479 91.3953 565.096C91.3953 562.726 91.7866 560.911 92.5692 559.651C93.3518 558.39 94.4838 557.76 95.9651 557.76ZM92.8836 565.096C92.8836 566.786 93.0374 568.109 93.3448 569.065L97.9985 559.859C97.5093 559.207 96.8315 558.882 95.9651 558.882C95.0008 558.882 94.2462 559.394 93.7012 560.42C93.1561 561.431 92.8836 562.99 92.8836 565.096ZM95.9651 571.31C96.9433 571.31 97.705 570.804 98.25 569.792C98.795 568.767 99.0675 567.202 99.0675 565.096C99.0675 563.308 98.8928 561.923 98.5435 560.939L93.8898 570.229C94.3929 570.949 95.0847 571.31 95.9651 571.31Z" fill="url(#paint20_linear_175_198)" fill-opacity="0.6"/>
<path d="M95.9651 581.511C97.4604 581.511 98.5924 582.141 99.361 583.402C100.144 584.649 100.535 586.464 100.535 588.847C100.535 591.23 100.144 593.052 99.361 594.312C98.5924 595.573 97.4604 596.204 95.9651 596.204C94.4838 596.204 93.3518 595.573 92.5692 594.312C91.7866 593.052 91.3953 591.23 91.3953 588.847C91.3953 586.478 91.7866 584.663 92.5692 583.402C93.3518 582.141 94.4838 581.511 95.9651 581.511ZM92.8836 588.847C92.8836 590.537 93.0374 591.86 93.3448 592.816L97.9985 583.61C97.5093 582.958 96.8315 582.633 95.9651 582.633C95.0008 582.633 94.2462 583.145 93.7012 584.171C93.1561 585.182 92.8836 586.741 92.8836 588.847ZM95.9651 595.061C96.9433 595.061 97.705 594.555 98.25 593.543C98.795 592.518 99.0675 590.953 99.0675 588.847C99.0675 587.059 98.8928 585.674 98.5435 584.69L93.8898 593.98C94.3929 594.7 95.0847 595.061 95.9651 595.061Z" fill="url(#paint21_linear_175_198)" fill-opacity="0.6"/>
<path d="M97.2228 618.645H100.304V619.747H92.3176V618.645H95.8812V606.966L92.4853 608.982L91.8984 608.046L96.0909 605.469H97.2228V618.645Z" fill="url(#paint22_linear_175_198)" fill-opacity="0.6"/>
<path d="M95.9651 629.013C97.4604 629.013 98.5924 629.643 99.361 630.904C100.144 632.151 100.535 633.966 100.535 636.349C100.535 638.732 100.144 640.554 99.361 641.815C98.5924 643.075 97.4604 643.706 95.9651 643.706C94.4838 643.706 93.3518 643.075 92.5692 641.815C91.7866 640.554 91.3953 638.732 91.3953 636.349C91.3953 633.98 91.7866 632.165 92.5692 630.904C93.3518 629.643 94.4838 629.013 95.9651 629.013ZM92.8836 636.349C92.8836 638.039 93.0374 639.362 93.3448 640.318L97.9985 631.112C97.5093 630.461 96.8315 630.135 95.9651 630.135C95.0008 630.135 94.2462 630.648 93.7012 631.673C93.1561 632.684 92.8836 634.243 92.8836 636.349ZM95.9651 642.563C96.9433 642.563 97.705 642.057 98.25 641.046C98.795 640.02 99.0675 638.455 99.0675 636.349C99.0675 634.562 98.8928 633.176 98.5435 632.192L93.8898 641.482C94.3929 642.202 95.0847 642.563 95.9651 642.563Z" fill="url(#paint23_linear_175_198)" fill-opacity="0.6"/>
<path d="M97.2228 666.148H100.304V667.249H92.3176V666.148H95.8812V654.468L92.4853 656.484L91.8984 655.549L96.0909 652.972H97.2228V666.148Z" fill="url(#paint24_linear_175_198)" fill-opacity="0.6"/>
<path d="M97.2228 689.899H100.304V691H92.3176V689.899H95.8812V678.219L92.4853 680.235L91.8984 679.3L96.0909 676.723H97.2228V689.899Z" fill="url(#paint25_linear_175_198)" fill-opacity="0.6"/>
<path d="M37.5698 415.253C39.0651 415.253 40.1971 415.884 40.9657 417.144C41.7483 418.391 42.1396 420.206 42.1396 422.589C42.1396 424.972 41.7483 426.794 40.9657 428.055C40.1971 429.316 39.0651 429.946 37.5698 429.946C36.0885 429.946 34.9565 429.316 34.1739 428.055C33.3913 426.794 33 424.972 33 422.589C33 420.22 33.3913 418.405 34.1739 417.144C34.9565 415.884 36.0885 415.253 37.5698 415.253ZM34.4883 422.589C34.4883 424.28 34.6421 425.603 34.9495 426.559L39.6032 417.352C39.114 416.701 38.4363 416.375 37.5698 416.375C36.6055 416.375 35.8509 416.888 35.3059 417.913C34.7608 418.925 34.4883 420.483 34.4883 422.589ZM37.5698 428.803C38.5481 428.803 39.3097 428.297 39.8547 427.286C40.3997 426.261 40.6722 424.695 40.6722 422.589C40.6722 420.802 40.4976 419.417 40.1482 418.433L35.4945 427.722C35.9976 428.443 36.6894 428.803 37.5698 428.803Z" fill="url(#paint26_linear_175_198)" fill-opacity="0.6"/>
<path d="M37.5698 439.004C39.0651 439.004 40.1971 439.635 40.9657 440.895C41.7483 442.142 42.1396 443.957 42.1396 446.34C42.1396 448.723 41.7483 450.545 40.9657 451.806C40.1971 453.067 39.0651 453.697 37.5698 453.697C36.0885 453.697 34.9565 453.067 34.1739 451.806C33.3913 450.545 33 448.723 33 446.34C33 443.971 33.3913 442.156 34.1739 440.895C34.9565 439.635 36.0885 439.004 37.5698 439.004ZM34.4883 446.34C34.4883 448.031 34.6421 449.354 34.9495 450.31L39.6032 441.103C39.114 440.452 38.4363 440.126 37.5698 440.126C36.6055 440.126 35.8509 440.639 35.3059 441.664C34.7608 442.676 34.4883 444.234 34.4883 446.34ZM37.5698 452.554C38.5481 452.554 39.3097 452.049 39.8547 451.037C40.3997 450.012 40.6722 448.446 40.6722 446.34C40.6722 444.553 40.4976 443.168 40.1482 442.184L35.4945 451.474C35.9976 452.194 36.6894 452.554 37.5698 452.554Z" fill="url(#paint27_linear_175_198)" fill-opacity="0.6"/>
<path d="M38.8276 476.139H41.909V477.24H33.9223V476.139H37.486V464.459L34.09 466.475L33.5031 465.54L37.6956 462.963H38.8276V476.139Z" fill="url(#paint28_linear_175_198)" fill-opacity="0.6"/>
<path d="M37.5698 486.506C39.0651 486.506 40.1971 487.137 40.9657 488.398C41.7483 489.644 42.1396 491.459 42.1396 493.842C42.1396 496.225 41.7483 498.047 40.9657 499.308C40.1971 500.569 39.0651 501.199 37.5698 501.199C36.0885 501.199 34.9565 500.569 34.1739 499.308C33.3913 498.047 33 496.225 33 493.842C33 491.473 33.3913 489.658 34.1739 488.398C34.9565 487.137 36.0885 486.506 37.5698 486.506ZM34.4883 493.842C34.4883 495.533 34.6421 496.856 34.9495 497.812L39.6032 488.605C39.114 487.954 38.4363 487.629 37.5698 487.629C36.6055 487.629 35.8509 488.141 35.3059 489.166C34.7608 490.178 34.4883 491.737 34.4883 493.842ZM37.5698 500.056C38.5481 500.056 39.3097 499.551 39.8547 498.539C40.3997 497.514 40.6722 495.948 40.6722 493.842C40.6722 492.055 40.4976 490.67 40.1482 489.686L35.4945 498.976C35.9976 499.696 36.6894 500.056 37.5698 500.056Z" fill="url(#paint29_linear_175_198)" fill-opacity="0.6"/>
<path d="M38.8276 523.641H41.909V524.743H33.9223V523.641H37.486V511.962L34.09 513.977L33.5031 513.042L37.6956 510.465H38.8276V523.641Z" fill="url(#paint30_linear_175_198)" fill-opacity="0.6"/>
<path d="M38.8276 547.392H41.909V548.494H33.9223V547.392H37.486V535.713L34.09 537.728L33.5031 536.793L37.6956 534.216H38.8276V547.392Z" fill="url(#paint31_linear_175_198)" fill-opacity="0.6"/>
<path d="M77.7577 381.135H80.8392V382.236H72.8525V381.135H76.4162V369.455L73.0202 371.471L72.4333 370.536L76.6258 367.959H77.7577V381.135Z" fill="url(#paint32_linear_175_198)" fill-opacity="0.6"/>
<path d="M76.5 391.502C77.9953 391.502 79.1273 392.133 79.8959 393.393C80.6785 394.64 81.0698 396.455 81.0698 398.838C81.0698 401.221 80.6785 403.043 79.8959 404.304C79.1273 405.565 77.9953 406.195 76.5 406.195C75.0187 406.195 73.8867 405.565 73.1041 404.304C72.3215 403.043 71.9302 401.221 71.9302 398.838C71.9302 396.469 72.3215 394.654 73.1041 393.393C73.8867 392.133 75.0187 391.502 76.5 391.502ZM73.4185 398.838C73.4185 400.529 73.5723 401.852 73.8797 402.808L78.5334 393.601C78.0442 392.95 77.3664 392.624 76.5 392.624C75.5357 392.624 74.7811 393.137 74.2361 394.162C73.691 395.174 73.4185 396.732 73.4185 398.838ZM76.5 405.052C77.4782 405.052 78.2399 404.546 78.7849 403.535C79.3299 402.51 79.6024 400.944 79.6024 398.838C79.6024 397.051 79.4277 395.665 79.0784 394.682L74.4247 403.971C74.9278 404.692 75.6196 405.052 76.5 405.052Z" fill="url(#paint33_linear_175_198)" fill-opacity="0.6"/>
<path d="M77.7577 428.637H80.8392V429.738H72.8525V428.637H76.4162V416.957L73.0202 418.973L72.4333 418.038L76.6258 415.461H77.7577V428.637Z" fill="url(#paint34_linear_175_198)" fill-opacity="0.6"/>
<path d="M77.7577 452.388H80.8392V453.489H72.8525V452.388H76.4162V440.708L73.0202 442.724L72.4333 441.789L76.6258 439.212H77.7577V452.388Z" fill="url(#paint35_linear_175_198)" fill-opacity="0.6"/>
<path d="M76.5 462.755C77.9953 462.755 79.1273 463.386 79.8959 464.646C80.6785 465.893 81.0698 467.708 81.0698 470.091C81.0698 472.474 80.6785 474.296 79.8959 475.557C79.1273 476.818 77.9953 477.448 76.5 477.448C75.0187 477.448 73.8867 476.818 73.1041 475.557C72.3215 474.296 71.9302 472.474 71.9302 470.091C71.9302 467.722 72.3215 465.907 73.1041 464.646C73.8867 463.386 75.0187 462.755 76.5 462.755ZM73.4185 470.091C73.4185 471.782 73.5723 473.105 73.8797 474.061L78.5334 464.854C78.0442 464.203 77.3664 463.878 76.5 463.878C75.5357 463.878 74.7811 464.39 74.2361 465.415C73.691 466.427 73.4185 467.985 73.4185 470.091ZM76.5 476.305C77.4782 476.305 78.2399 475.8 78.7849 474.788C79.3299 473.763 79.6024 472.197 79.6024 470.091C79.6024 468.304 79.4277 466.919 79.0784 465.935L74.4247 475.225C74.9278 475.945 75.6196 476.305 76.5 476.305Z" fill="url(#paint36_linear_175_198)" fill-opacity="0.6"/>
<path d="M77.7577 499.89H80.8392V500.992H72.8525V499.89H76.4162V488.21L73.0202 490.226L72.4333 489.291L76.6258 486.714H77.7577V499.89Z" fill="url(#paint37_linear_175_198)" fill-opacity="0.6"/>
<path d="M77.7577 523.641H80.8392V524.743H72.8525V523.641H76.4162V511.962L73.0202 513.977L72.4333 513.042L76.6258 510.465H77.7577V523.641Z" fill="url(#paint38_linear_175_198)" fill-opacity="0.6"/>
<path d="M76.5 534.008C77.9953 534.008 79.1273 534.639 79.8959 535.9C80.6785 537.147 81.0698 538.962 81.0698 541.345C81.0698 543.728 80.6785 545.549 79.8959 546.81C79.1273 548.071 77.9953 548.701 76.5 548.701C75.0187 548.701 73.8867 548.071 73.1041 546.81C72.3215 545.549 71.9302 543.728 71.9302 541.345C71.9302 538.975 72.3215 537.16 73.1041 535.9C73.8867 534.639 75.0187 534.008 76.5 534.008ZM73.4185 541.345C73.4185 543.035 73.5723 544.358 73.8797 545.314L78.5334 536.107C78.0442 535.456 77.3664 535.131 76.5 535.131C75.5357 535.131 74.7811 535.643 74.2361 536.669C73.691 537.68 73.4185 539.239 73.4185 541.345ZM76.5 547.558C77.4782 547.558 78.2399 547.053 78.7849 546.041C79.3299 545.016 79.6024 543.451 79.6024 541.345C79.6024 539.557 79.4277 538.172 79.0784 537.188L74.4247 546.478C74.9278 547.198 75.6196 547.558 76.5 547.558Z" fill="url(#paint39_linear_175_198)" fill-opacity="0.6"/>
<path d="M77.7577 571.143H80.8392V572.245H72.8525V571.143H76.4162V559.464L73.0202 561.48L72.4333 560.544L76.6258 557.967H77.7577V571.143Z" fill="url(#paint40_linear_175_198)" fill-opacity="0.6"/>
<path d="M76.5 581.511C77.9953 581.511 79.1273 582.141 79.8959 583.402C80.6785 584.649 81.0698 586.464 81.0698 588.847C81.0698 591.23 80.6785 593.052 79.8959 594.312C79.1273 595.573 77.9953 596.204 76.5 596.204C75.0187 596.204 73.8867 595.573 73.1041 594.312C72.3215 593.052 71.9302 591.23 71.9302 588.847C71.9302 586.478 72.3215 584.663 73.1041 583.402C73.8867 582.141 75.0187 581.511 76.5 581.511ZM73.4185 588.847C73.4185 590.537 73.5723 591.86 73.8797 592.816L78.5334 583.61C78.0442 582.958 77.3664 582.633 76.5 582.633C75.5357 582.633 74.7811 583.145 74.2361 584.171C73.691 585.182 73.4185 586.741 73.4185 588.847ZM76.5 595.061C77.4782 595.061 78.2399 594.555 78.7849 593.543C79.3299 592.518 79.6024 590.953 79.6024 588.847C79.6024 587.059 79.4277 585.674 79.0784 584.69L74.4247 593.98C74.9278 594.7 75.6196 595.061 76.5 595.061Z" fill="url(#paint41_linear_175_198)" fill-opacity="0.6"/>
<path d="M115.43 367.751C116.926 367.751 118.057 368.381 118.826 369.642C119.609 370.889 120 372.704 120 375.087C120 377.47 119.609 379.292 118.826 380.553C118.057 381.814 116.926 382.444 115.43 382.444C113.949 382.444 112.817 381.814 112.034 380.553C111.252 379.292 110.86 377.47 110.86 375.087C110.86 372.718 111.252 370.903 112.034 369.642C112.817 368.381 113.949 367.751 115.43 367.751ZM112.349 375.087C112.349 376.777 112.502 378.101 112.81 379.057L117.464 369.85C116.974 369.199 116.297 368.873 115.43 368.873C114.466 368.873 113.711 369.386 113.166 370.411C112.621 371.423 112.349 372.981 112.349 375.087ZM115.43 381.301C116.408 381.301 117.17 380.795 117.715 379.784C118.26 378.759 118.533 377.193 118.533 375.087C118.533 373.3 118.358 371.914 118.009 370.931L113.355 380.22C113.858 380.941 114.55 381.301 115.43 381.301Z" fill="url(#paint42_linear_175_198)" fill-opacity="0.6"/>
<path d="M116.688 404.886H119.769V405.987H111.783V404.886H115.346V393.206L111.95 395.222L111.363 394.287L115.556 391.71H116.688V404.886Z" fill="url(#paint43_linear_175_198)" fill-opacity="0.6"/>
<path d="M116.688 428.637H119.769V429.738H111.783V428.637H115.346V416.957L111.95 418.973L111.363 418.038L115.556 415.461H116.688V428.637Z" fill="url(#paint44_linear_175_198)" fill-opacity="0.6"/>
<path d="M115.43 439.004C116.926 439.004 118.057 439.635 118.826 440.895C119.609 442.142 120 443.957 120 446.34C120 448.723 119.609 450.545 118.826 451.806C118.057 453.067 116.926 453.697 115.43 453.697C113.949 453.697 112.817 453.067 112.034 451.806C111.252 450.545 110.86 448.723 110.86 446.34C110.86 443.971 111.252 442.156 112.034 440.895C112.817 439.635 113.949 439.004 115.43 439.004ZM112.349 446.34C112.349 448.031 112.502 449.354 112.81 450.31L117.464 441.103C116.974 440.452 116.297 440.126 115.43 440.126C114.466 440.126 113.711 440.639 113.166 441.664C112.621 442.676 112.349 444.234 112.349 446.34ZM115.43 452.554C116.408 452.554 117.17 452.049 117.715 451.037C118.26 450.012 118.533 448.446 118.533 446.34C118.533 444.553 118.358 443.168 118.009 442.184L113.355 451.474C113.858 452.194 114.55 452.554 115.43 452.554Z" fill="url(#paint45_linear_175_198)" fill-opacity="0.6"/>
<path d="M115.43 462.755C116.926 462.755 118.057 463.386 118.826 464.646C119.609 465.893 120 467.708 120 470.091C120 472.474 119.609 474.296 118.826 475.557C118.057 476.818 116.926 477.448 115.43 477.448C113.949 477.448 112.817 476.818 112.034 475.557C111.252 474.296 110.86 472.474 110.86 470.091C110.86 467.722 111.252 465.907 112.034 464.646C112.817 463.386 113.949 462.755 115.43 462.755ZM112.349 470.091C112.349 471.782 112.502 473.105 112.81 474.061L117.464 464.854C116.974 464.203 116.297 463.878 115.43 463.878C114.466 463.878 113.711 464.39 113.166 465.415C112.621 466.427 112.349 467.985 112.349 470.091ZM115.43 476.305C116.408 476.305 117.17 475.8 117.715 474.788C118.26 473.763 118.533 472.197 118.533 470.091C118.533 468.304 118.358 466.919 118.009 465.935L113.355 475.225C113.858 475.945 114.55 476.305 115.43 476.305Z" fill="url(#paint46_linear_175_198)" fill-opacity="0.6"/>
<g opacity="0.6">
<path d="M943.93 44C945.356 44 946.436 44.605 947.17 45.8149C947.916 47.0115 948.29 48.7532 948.29 51.0401C948.29 53.327 947.916 55.0754 947.17 56.2853C946.436 57.4952 945.356 58.1002 943.93 58.1002C942.517 58.1002 941.437 57.4952 940.69 56.2853C939.943 55.0754 939.57 53.327 939.57 51.0401C939.57 48.7665 939.943 47.0248 940.69 45.8149C941.437 44.605 942.517 44 943.93 44ZM940.99 51.0401C940.99 52.6622 941.137 53.932 941.43 54.8494L945.87 46.0143C945.403 45.3894 944.756 45.077 943.93 45.077C943.01 45.077 942.29 45.5689 941.77 46.5528C941.25 47.5234 940.99 49.0192 940.99 51.0401ZM943.93 57.0033C944.863 57.0033 945.59 56.518 946.11 55.5474C946.63 54.5635 946.89 53.0611 946.89 51.0401C946.89 49.325 946.723 47.9954 946.39 47.0514L941.95 55.9662C942.43 56.6576 943.09 57.0033 943.93 57.0033Z" fill="url(#paint47_linear_175_198)"/>
<path d="M945.13 79.6365H948.07V80.6936H940.45V79.6365H943.85V68.4282L940.61 70.3627L940.05 69.4653L944.05 66.9922H945.13V79.6365Z" fill="url(#paint48_linear_175_198)"/>
<path d="M943.93 89.5856C945.356 89.5856 946.436 90.1906 947.17 91.4005C947.916 92.5971 948.29 94.3389 948.29 96.6257C948.29 98.9126 947.916 100.661 947.17 101.871C946.436 103.081 945.356 103.686 943.93 103.686C942.517 103.686 941.437 103.081 940.69 101.871C939.943 100.661 939.57 98.9126 939.57 96.6257C939.57 94.3522 939.943 92.6104 940.69 91.4005C941.437 90.1906 942.517 89.5856 943.93 89.5856ZM940.99 96.6257C940.99 98.2478 941.137 99.5176 941.43 100.435L945.87 91.5999C945.403 90.975 944.756 90.6626 943.93 90.6626C943.01 90.6626 942.29 91.1545 941.77 92.1384C941.25 93.109 940.99 94.6048 940.99 96.6257ZM943.93 102.589C944.863 102.589 945.59 102.104 946.11 101.133C946.63 100.149 946.89 98.6467 946.89 96.6257C946.89 94.9106 946.723 93.581 946.39 92.637L941.95 101.552C942.43 102.243 943.09 102.589 943.93 102.589Z" fill="url(#paint49_linear_175_198)"/>
<path d="M945.13 125.222H948.07V126.279H940.45V125.222H943.85V114.014L940.61 115.948L940.05 115.051L944.05 112.578H945.13V125.222Z" fill="url(#paint50_linear_175_198)"/>
<path d="M945.13 148.015H948.07V149.072H940.45V148.015H943.85V136.807L940.61 138.741L940.05 137.844L944.05 135.371H945.13V148.015Z" fill="url(#paint51_linear_175_198)"/>
<path d="M943.93 157.964C945.356 157.964 946.436 158.569 947.17 159.779C947.916 160.976 948.29 162.717 948.29 165.004C948.29 167.291 947.916 169.039 947.17 170.249C946.436 171.459 945.356 172.064 943.93 172.064C942.517 172.064 941.437 171.459 940.69 170.249C939.943 169.039 939.57 167.291 939.57 165.004C939.57 162.731 939.943 160.989 940.69 159.779C941.437 158.569 942.517 157.964 943.93 157.964ZM940.99 165.004C940.99 166.626 941.137 167.896 941.43 168.813L945.87 159.978C945.403 159.353 944.756 159.041 943.93 159.041C943.01 159.041 942.29 159.533 941.77 160.517C941.25 161.487 940.99 162.983 940.99 165.004ZM943.93 170.967C944.863 170.967 945.59 170.482 946.11 169.511C946.63 168.528 946.89 167.025 946.89 165.004C946.89 163.289 946.723 161.959 946.39 161.015L941.95 169.93C942.43 170.622 943.09 170.967 943.93 170.967Z" fill="url(#paint52_linear_175_198)"/>
<path d="M945.13 193.601H948.07V194.658H940.45V193.601H943.85V182.392L940.61 184.327L940.05 183.429L944.05 180.956H945.13V193.601Z" fill="url(#paint53_linear_175_198)"/>
<path d="M943.93 203.55C945.356 203.55 946.436 204.155 947.17 205.365C947.916 206.561 948.29 208.303 948.29 210.59C948.29 212.877 947.916 214.625 947.17 215.835C946.436 217.045 945.356 217.65 943.93 217.65C942.517 217.65 941.437 217.045 940.69 215.835C939.943 214.625 939.57 212.877 939.57 210.59C939.57 208.316 939.943 206.574 940.69 205.365C941.437 204.155 942.517 203.55 943.93 203.55ZM940.99 210.59C940.99 212.212 941.137 213.482 941.43 214.399L945.87 205.564C945.403 204.939 944.756 204.627 943.93 204.627C943.01 204.627 942.29 205.119 941.77 206.102C941.25 207.073 940.99 208.569 940.99 210.59ZM943.93 216.553C944.863 216.553 945.59 216.068 946.11 215.097C946.63 214.113 946.89 212.611 946.89 210.59C946.89 208.875 946.723 207.545 946.39 206.601L941.95 215.516C942.43 216.207 943.09 216.553 943.93 216.553Z" fill="url(#paint54_linear_175_198)"/>
<path d="M943.93 226.342C945.356 226.342 946.436 226.947 947.17 228.157C947.916 229.354 948.29 231.096 948.29 233.383C948.29 235.669 947.916 237.418 947.17 238.628C946.436 239.838 945.356 240.443 943.93 240.443C942.517 240.443 941.437 239.838 940.69 238.628C939.943 237.418 939.57 235.669 939.57 233.383C939.57 231.109 939.943 229.367 940.69 228.157C941.437 226.947 942.517 226.342 943.93 226.342ZM940.99 233.383C940.99 235.005 941.137 236.274 941.43 237.192L945.87 228.357C945.403 227.732 944.756 227.419 943.93 227.419C943.01 227.419 942.29 227.911 941.77 228.895C941.25 229.866 940.99 231.362 940.99 233.383ZM943.93 239.346C944.863 239.346 945.59 238.86 946.11 237.89C946.63 236.906 946.89 235.404 946.89 233.383C946.89 231.667 946.723 230.338 946.39 229.394L941.95 238.309C942.43 239 943.09 239.346 943.93 239.346Z" fill="url(#paint55_linear_175_198)"/>
<path d="M945.13 261.979H948.07V263.036H940.45V261.979H943.85V250.771L940.61 252.705L940.05 251.808L944.05 249.335H945.13V261.979Z" fill="url(#paint56_linear_175_198)"/>
<path d="M943.93 271.928C945.356 271.928 946.436 272.533 947.17 273.743C947.916 274.94 948.29 276.681 948.29 278.968C948.29 281.255 947.916 283.003 947.17 284.213C946.436 285.423 945.356 286.028 943.93 286.028C942.517 286.028 941.437 285.423 940.69 284.213C939.943 283.003 939.57 281.255 939.57 278.968C939.57 276.695 939.943 274.953 940.69 273.743C941.437 272.533 942.517 271.928 943.93 271.928ZM940.99 278.968C940.99 280.59 941.137 281.86 941.43 282.777L945.87 273.942C945.403 273.317 944.756 273.005 943.93 273.005C943.01 273.005 942.29 273.497 941.77 274.481C941.25 275.451 940.99 276.947 940.99 278.968ZM943.93 284.931C944.863 284.931 945.59 284.446 946.11 283.475C946.63 282.492 946.89 280.989 946.89 278.968C946.89 277.253 946.723 275.923 946.39 274.979L941.95 283.894C942.43 284.586 943.09 284.931 943.93 284.931Z" fill="url(#paint57_linear_175_198)"/>
<path d="M945.13 307.565H948.07V308.622H940.45V307.565H943.85V296.356L940.61 298.291L940.05 297.393L944.05 294.92H945.13V307.565Z" fill="url(#paint58_linear_175_198)"/>
<path d="M945.13 330.357H948.07V331.414H940.45V330.357H943.85V319.149L940.61 321.084L940.05 320.186L944.05 317.713H945.13V330.357Z" fill="url(#paint59_linear_175_198)"/>
<path d="M981.07 89.5856C982.497 89.5856 983.577 90.1906 984.31 91.4005C985.057 92.5971 985.43 94.3389 985.43 96.6257C985.43 98.9126 985.057 100.661 984.31 101.871C983.577 103.081 982.497 103.686 981.07 103.686C979.657 103.686 978.577 103.081 977.83 101.871C977.084 100.661 976.71 98.9126 976.71 96.6257C976.71 94.3522 977.084 92.6104 977.83 91.4005C978.577 90.1906 979.657 89.5856 981.07 89.5856ZM978.13 96.6257C978.13 98.2478 978.277 99.5176 978.57 100.435L983.01 91.5999C982.543 90.975 981.897 90.6626 981.07 90.6626C980.15 90.6626 979.43 91.1545 978.91 92.1384C978.39 93.109 978.13 94.6048 978.13 96.6257ZM981.07 102.589C982.003 102.589 982.73 102.104 983.25 101.133C983.77 100.149 984.03 98.6467 984.03 96.6257C984.03 94.9106 983.863 93.581 983.53 92.637L979.09 101.552C979.57 102.243 980.23 102.589 981.07 102.589Z" fill="url(#paint60_linear_175_198)"/>
<path d="M982.27 125.222H985.21V126.279H977.59V125.222H980.99V114.014L977.75 115.948L977.19 115.051L981.19 112.578H982.27V125.222Z" fill="url(#paint61_linear_175_198)"/>
<path d="M981.07 135.171C982.497 135.171 983.577 135.776 984.31 136.986C985.057 138.183 985.43 139.924 985.43 142.211C985.43 144.498 985.057 146.247 984.31 147.457C983.577 148.666 982.497 149.271 981.07 149.271C979.657 149.271 978.577 148.666 977.83 147.457C977.084 146.247 976.71 144.498 976.71 142.211C976.71 139.938 977.084 138.196 977.83 136.986C978.577 135.776 979.657 135.171 981.07 135.171ZM978.13 142.211C978.13 143.833 978.277 145.103 978.57 146.021L983.01 137.186C982.543 136.561 981.897 136.248 981.07 136.248C980.15 136.248 979.43 136.74 978.91 137.724C978.39 138.695 978.13 140.19 978.13 142.211ZM981.07 148.174C982.003 148.174 982.73 147.689 983.25 146.719C983.77 145.735 984.03 144.232 984.03 142.211C984.03 140.496 983.863 139.167 983.53 138.223L979.09 147.137C979.57 147.829 980.23 148.174 981.07 148.174Z" fill="url(#paint62_linear_175_198)"/>
<path d="M981.07 157.964C982.497 157.964 983.577 158.569 984.31 159.779C985.057 160.976 985.43 162.717 985.43 165.004C985.43 167.291 985.057 169.039 984.31 170.249C983.577 171.459 982.497 172.064 981.07 172.064C979.657 172.064 978.577 171.459 977.83 170.249C977.084 169.039 976.71 167.291 976.71 165.004C976.71 162.731 977.084 160.989 977.83 159.779C978.577 158.569 979.657 157.964 981.07 157.964ZM978.13 165.004C978.13 166.626 978.277 167.896 978.57 168.813L983.01 159.978C982.543 159.353 981.897 159.041 981.07 159.041C980.15 159.041 979.43 159.533 978.91 160.517C978.39 161.487 978.13 162.983 978.13 165.004ZM981.07 170.967C982.003 170.967 982.73 170.482 983.25 169.511C983.77 168.528 984.03 167.025 984.03 165.004C984.03 163.289 983.863 161.959 983.53 161.015L979.09 169.93C979.57 170.622 980.23 170.967 981.07 170.967Z" fill="url(#paint63_linear_175_198)"/>
<path d="M982.27 193.601H985.21V194.658H977.59V193.601H980.99V182.392L977.75 184.327L977.19 183.429L981.19 180.956H982.27V193.601Z" fill="url(#paint64_linear_175_198)"/>
<path d="M981.07 203.55C982.497 203.55 983.577 204.155 984.31 205.365C985.057 206.561 985.43 208.303 985.43 210.59C985.43 212.877 985.057 214.625 984.31 215.835C983.577 217.045 982.497 217.65 981.07 217.65C979.657 217.65 978.577 217.045 977.83 215.835C977.084 214.625 976.71 212.877 976.71 210.59C976.71 208.316 977.084 206.574 977.83 205.365C978.577 204.155 979.657 203.55 981.07 203.55ZM978.13 210.59C978.13 212.212 978.277 213.482 978.57 214.399L983.01 205.564C982.543 204.939 981.897 204.627 981.07 204.627C980.15 204.627 979.43 205.119 978.91 206.102C978.39 207.073 978.13 208.569 978.13 210.59ZM981.07 216.553C982.003 216.553 982.73 216.068 983.25 215.097C983.77 214.113 984.03 212.611 984.03 210.59C984.03 208.875 983.863 207.545 983.53 206.601L979.09 215.516C979.57 216.207 980.23 216.553 981.07 216.553Z" fill="url(#paint65_linear_175_198)"/>
<path d="M982.27 239.186H985.21V240.243H977.59V239.186H980.99V227.978L977.75 229.912L977.19 229.015L981.19 226.542H982.27V239.186Z" fill="url(#paint66_linear_175_198)"/>
<path d="M981.07 249.135C982.497 249.135 983.577 249.74 984.31 250.95C985.057 252.147 985.43 253.888 985.43 256.175C985.43 258.462 985.057 260.211 984.31 261.421C983.577 262.63 982.497 263.235 981.07 263.235C979.657 263.235 978.577 262.63 977.83 261.421C977.084 260.211 976.71 258.462 976.71 256.175C976.71 253.902 977.084 252.16 977.83 250.95C978.577 249.74 979.657 249.135 981.07 249.135ZM978.13 256.175C978.13 257.797 978.277 259.067 978.57 259.985L983.01 251.15C982.543 250.525 981.897 250.212 981.07 250.212C980.15 250.212 979.43 250.704 978.91 251.688C978.39 252.659 978.13 254.154 978.13 256.175ZM981.07 262.139C982.003 262.139 982.73 261.653 983.25 260.683C983.77 259.699 984.03 258.196 984.03 256.175C984.03 254.46 983.863 253.131 983.53 252.187L979.09 261.101C979.57 261.793 980.23 262.139 981.07 262.139Z" fill="url(#paint67_linear_175_198)"/>
<path d="M981.07 271.928C982.497 271.928 983.577 272.533 984.31 273.743C985.057 274.94 985.43 276.681 985.43 278.968C985.43 281.255 985.057 283.003 984.31 284.213C983.577 285.423 982.497 286.028 981.07 286.028C979.657 286.028 978.577 285.423 977.83 284.213C977.084 283.003 976.71 281.255 976.71 278.968C976.71 276.695 977.084 274.953 977.83 273.743C978.577 272.533 979.657 271.928 981.07 271.928ZM978.13 278.968C978.13 280.59 978.277 281.86 978.57 282.777L983.01 273.942C982.543 273.317 981.897 273.005 981.07 273.005C980.15 273.005 979.43 273.497 978.91 274.481C978.39 275.451 978.13 276.947 978.13 278.968ZM981.07 284.931C982.003 284.931 982.73 284.446 983.25 283.475C983.77 282.492 984.03 280.989 984.03 278.968C984.03 277.253 983.863 275.923 983.53 274.979L979.09 283.894C979.57 284.586 980.23 284.931 981.07 284.931Z" fill="url(#paint68_linear_175_198)"/>
<path d="M982.27 307.565H985.21V308.622H977.59V307.565H980.99V296.356L977.75 298.291L977.19 297.393L981.19 294.92H982.27V307.565Z" fill="url(#paint69_linear_175_198)"/>
<path d="M981.07 317.514C982.497 317.514 983.577 318.119 984.31 319.329C985.057 320.525 985.43 322.267 985.43 324.554C985.43 326.841 985.057 328.589 984.31 329.799C983.577 331.009 982.497 331.614 981.07 331.614C979.657 331.614 978.577 331.009 977.83 329.799C977.084 328.589 976.71 326.841 976.71 324.554C976.71 322.28 977.084 320.538 977.83 319.329C978.577 318.119 979.657 317.514 981.07 317.514ZM978.13 324.554C978.13 326.176 978.277 327.446 978.57 328.363L983.01 319.528C982.543 318.903 981.897 318.591 981.07 318.591C980.15 318.591 979.43 319.083 978.91 320.066C978.39 321.037 978.13 322.533 978.13 324.554ZM981.07 330.517C982.003 330.517 982.73 330.032 983.25 329.061C983.77 328.077 984.03 326.575 984.03 324.554C984.03 322.839 983.863 321.509 983.53 320.565L979.09 329.48C979.57 330.171 980.23 330.517 981.07 330.517Z" fill="url(#paint70_linear_175_198)"/>
<path d="M982.27 353.15H985.21V354.207H977.59V353.15H980.99V341.942L977.75 343.876L977.19 342.979L981.19 340.506H982.27V353.15Z" fill="url(#paint71_linear_175_198)"/>
<path d="M982.27 375.943H985.21V377H977.59V375.943H980.99V364.735L977.75 366.669L977.19 365.772L981.19 363.299H982.27V375.943Z" fill="url(#paint72_linear_175_198)"/>
<path d="M925.36 112.378C926.786 112.378 927.866 112.983 928.599 114.193C929.346 115.39 929.719 117.132 929.719 119.419C929.719 121.705 929.346 123.454 928.599 124.664C927.866 125.874 926.786 126.479 925.36 126.479C923.946 126.479 922.867 125.874 922.12 124.664C921.373 123.454 921 121.705 921 119.419C921 117.145 921.373 115.403 922.12 114.193C922.867 112.983 923.946 112.378 925.36 112.378ZM922.42 119.419C922.42 121.041 922.567 122.31 922.86 123.228L927.3 114.393C926.833 113.768 926.186 113.455 925.36 113.455C924.44 113.455 923.72 113.947 923.2 114.931C922.68 115.902 922.42 117.398 922.42 119.419ZM925.36 125.382C926.293 125.382 927.02 124.896 927.54 123.926C928.06 122.942 928.319 121.44 928.319 119.419C928.319 117.703 928.153 116.374 927.82 115.43L923.38 124.345C923.86 125.036 924.52 125.382 925.36 125.382Z" fill="url(#paint73_linear_175_198)"/>
<path d="M925.36 135.171C926.786 135.171 927.866 135.776 928.599 136.986C929.346 138.183 929.719 139.924 929.719 142.211C929.719 144.498 929.346 146.247 928.599 147.457C927.866 148.666 926.786 149.271 925.36 149.271C923.946 149.271 922.867 148.666 922.12 147.457C921.373 146.247 921 144.498 921 142.211C921 139.938 921.373 138.196 922.12 136.986C922.867 135.776 923.946 135.171 925.36 135.171ZM922.42 142.211C922.42 143.833 922.567 145.103 922.86 146.021L927.3 137.186C926.833 136.561 926.186 136.248 925.36 136.248C924.44 136.248 923.72 136.74 923.2 137.724C922.68 138.695 922.42 140.19 922.42 142.211ZM925.36 148.174C926.293 148.174 927.02 147.689 927.54 146.719C928.06 145.735 928.319 144.232 928.319 142.211C928.319 140.496 928.153 139.167 927.82 138.223L923.38 147.137C923.86 147.829 924.52 148.174 925.36 148.174Z" fill="url(#paint74_linear_175_198)"/>
<path d="M926.56 170.808H929.499V171.865H921.88V170.808H925.28V159.599L922.04 161.534L921.48 160.636L925.48 158.163H926.56V170.808Z" fill="url(#paint75_linear_175_198)"/>
<path d="M925.36 180.757C926.786 180.757 927.866 181.362 928.599 182.572C929.346 183.768 929.719 185.51 929.719 187.797C929.719 190.084 929.346 191.832 928.599 193.042C927.866 194.252 926.786 194.857 925.36 194.857C923.946 194.857 922.867 194.252 922.12 193.042C921.373 191.832 921 190.084 921 187.797C921 185.523 921.373 183.782 922.12 182.572C922.867 181.362 923.946 180.757 925.36 180.757ZM922.42 187.797C922.42 189.419 922.567 190.689 922.86 191.606L927.3 182.771C926.833 182.146 926.186 181.834 925.36 181.834C924.44 181.834 923.72 182.326 923.2 183.31C922.68 184.28 922.42 185.776 922.42 187.797ZM925.36 193.76C926.293 193.76 927.02 193.275 927.54 192.304C928.06 191.32 928.319 189.818 928.319 187.797C928.319 186.082 928.153 184.752 927.82 183.808L923.38 192.723C923.86 193.414 924.52 193.76 925.36 193.76Z" fill="url(#paint76_linear_175_198)"/>
<path d="M926.56 216.393H929.499V217.45H921.88V216.393H925.28V205.185L922.04 207.12L921.48 206.222L925.48 203.749H926.56V216.393Z" fill="url(#paint77_linear_175_198)"/>
<path d="M926.56 239.186H929.499V240.243H921.88V239.186H925.28V227.978L922.04 229.912L921.48 229.015L925.48 226.542H926.56V239.186Z" fill="url(#paint78_linear_175_198)"/>
<path d="M963.7 79.6365H966.64V80.6936H959.02V79.6365H962.42V68.4282L959.18 70.3627L958.62 69.4653L962.62 66.9922H963.7V79.6365Z" fill="url(#paint79_linear_175_198)"/>
<path d="M962.5 89.5856C963.927 89.5856 965.006 90.1906 965.74 91.4005C966.486 92.5971 966.86 94.3389 966.86 96.6257C966.86 98.9126 966.486 100.661 965.74 101.871C965.006 103.081 963.927 103.686 962.5 103.686C961.087 103.686 960.007 103.081 959.26 101.871C958.514 100.661 958.14 98.9126 958.14 96.6257C958.14 94.3522 958.514 92.6104 959.26 91.4005C960.007 90.1906 961.087 89.5856 962.5 89.5856ZM959.56 96.6257C959.56 98.2478 959.707 99.5176 960 100.435L964.44 91.5999C963.973 90.975 963.327 90.6626 962.5 90.6626C961.58 90.6626 960.86 91.1545 960.34 92.1384C959.82 93.109 959.56 94.6048 959.56 96.6257ZM962.5 102.589C963.433 102.589 964.16 102.104 964.68 101.133C965.2 100.149 965.46 98.6467 965.46 96.6257C965.46 94.9106 965.293 93.581 964.96 92.637L960.52 101.552C961 102.243 961.66 102.589 962.5 102.589Z" fill="url(#paint80_linear_175_198)"/>
<path d="M963.7 125.222H966.64V126.279H959.02V125.222H962.42V114.014L959.18 115.948L958.62 115.051L962.62 112.578H963.7V125.222Z" fill="url(#paint81_linear_175_198)"/>
<path d="M963.7 148.015H966.64V149.072H959.02V148.015H962.42V136.807L959.18 138.741L958.62 137.844L962.62 135.371H963.7V148.015Z" fill="url(#paint82_linear_175_198)"/>
<path d="M962.5 157.964C963.927 157.964 965.006 158.569 965.74 159.779C966.486 160.976 966.86 162.717 966.86 165.004C966.86 167.291 966.486 169.039 965.74 170.249C965.006 171.459 963.927 172.064 962.5 172.064C961.087 172.064 960.007 171.459 959.26 170.249C958.514 169.039 958.14 167.291 958.14 165.004C958.14 162.731 958.514 160.989 959.26 159.779C960.007 158.569 961.087 157.964 962.5 157.964ZM959.56 165.004C959.56 166.626 959.707 167.896 960 168.813L964.44 159.978C963.973 159.353 963.327 159.041 962.5 159.041C961.58 159.041 960.86 159.533 960.34 160.517C959.82 161.487 959.56 162.983 959.56 165.004ZM962.5 170.967C963.433 170.967 964.16 170.482 964.68 169.511C965.2 168.528 965.46 167.025 965.46 165.004C965.46 163.289 965.293 161.959 964.96 161.015L960.52 169.93C961 170.622 961.66 170.967 962.5 170.967Z" fill="url(#paint83_linear_175_198)"/>
<path d="M963.7 193.601H966.64V194.658H959.02V193.601H962.42V182.392L959.18 184.327L958.62 183.429L962.62 180.956H963.7V193.601Z" fill="url(#paint84_linear_175_198)"/>
<path d="M963.7 216.393H966.64V217.45H959.02V216.393H962.42V205.185L959.18 207.12L958.62 206.222L962.62 203.749H963.7V216.393Z" fill="url(#paint85_linear_175_198)"/>
<path d="M962.5 226.342C963.927 226.342 965.006 226.947 965.74 228.157C966.486 229.354 966.86 231.096 966.86 233.383C966.86 235.669 966.486 237.418 965.74 238.628C965.006 239.838 963.927 240.443 962.5 240.443C961.087 240.443 960.007 239.838 959.26 238.628C958.514 237.418 958.14 235.669 958.14 233.383C958.14 231.109 958.514 229.367 959.26 228.157C960.007 226.947 961.087 226.342 962.5 226.342ZM959.56 233.383C959.56 235.005 959.707 236.274 960 237.192L964.44 228.357C963.973 227.732 963.327 227.419 962.5 227.419C961.58 227.419 960.86 227.911 960.34 228.895C959.82 229.866 959.56 231.362 959.56 233.383ZM962.5 239.346C963.433 239.346 964.16 238.86 964.68 237.89C965.2 236.906 965.46 235.404 965.46 233.383C965.46 231.667 965.293 230.338 964.96 229.394L960.52 238.309C961 239 961.66 239.346 962.5 239.346Z" fill="url(#paint86_linear_175_198)"/>
<path d="M963.7 261.979H966.64V263.036H959.02V261.979H962.42V250.771L959.18 252.705L958.62 251.808L962.62 249.335H963.7V261.979Z" fill="url(#paint87_linear_175_198)"/>
<path d="M962.5 271.928C963.927 271.928 965.006 272.533 965.74 273.743C966.486 274.94 966.86 276.681 966.86 278.968C966.86 281.255 966.486 283.003 965.74 284.213C965.006 285.423 963.927 286.028 962.5 286.028C961.087 286.028 960.007 285.423 959.26 284.213C958.514 283.003 958.14 281.255 958.14 278.968C958.14 276.695 958.514 274.953 959.26 273.743C960.007 272.533 961.087 271.928 962.5 271.928ZM959.56 278.968C959.56 280.59 959.707 281.86 960 282.777L964.44 273.942C963.973 273.317 963.327 273.005 962.5 273.005C961.58 273.005 960.86 273.497 960.34 274.481C959.82 275.451 959.56 276.947 959.56 278.968ZM962.5 284.931C963.433 284.931 964.16 284.446 964.68 283.475C965.2 282.492 965.46 280.989 965.46 278.968C965.46 277.253 965.293 275.923 964.96 274.979L960.52 283.894C961 284.586 961.66 284.931 962.5 284.931Z" fill="url(#paint88_linear_175_198)"/>
<path d="M999.64 66.7928C1001.07 66.7928 1002.15 67.3978 1002.88 68.6077C1003.63 69.8043 1004 71.5461 1004 73.8329C1004 76.1198 1003.63 77.8682 1002.88 79.0781C1002.15 80.288 1001.07 80.893 999.64 80.893C998.227 80.893 997.147 80.288 996.401 79.0781C995.654 77.8682 995.281 76.1198 995.281 73.8329C995.281 71.5593 995.654 69.8176 996.401 68.6077C997.147 67.3978 998.227 66.7928 999.64 66.7928ZM996.7 73.8329C996.7 75.455 996.847 76.7248 997.14 77.6422L1001.58 68.8071C1001.11 68.1822 1000.47 67.8698 999.64 67.8698C998.72 67.8698 998 68.3617 997.48 69.3456C996.96 70.3162 996.7 71.812 996.7 73.8329ZM999.64 79.7961C1000.57 79.7961 1001.3 79.3108 1001.82 78.3402C1002.34 77.3563 1002.6 75.8539 1002.6 73.8329C1002.6 72.1178 1002.43 70.7882 1002.1 69.8442L997.66 78.759C998.14 79.4504 998.8 79.7961 999.64 79.7961Z" fill="url(#paint89_linear_175_198)"/>
<path d="M1000.84 102.429H1003.78V103.486H996.161V102.429H999.56V91.221L996.321 93.1555L995.761 92.2581L999.76 89.785H1000.84V102.429Z" fill="url(#paint90_linear_175_198)"/>
<path d="M1000.84 125.222H1003.78V126.279H996.161V125.222H999.56V114.014L996.321 115.948L995.761 115.051L999.76 112.578H1000.84V125.222Z" fill="url(#paint91_linear_175_198)"/>
<path d="M999.64 135.171C1001.07 135.171 1002.15 135.776 1002.88 136.986C1003.63 138.183 1004 139.924 1004 142.211C1004 144.498 1003.63 146.247 1002.88 147.457C1002.15 148.666 1001.07 149.271 999.64 149.271C998.227 149.271 997.147 148.666 996.401 147.457C995.654 146.247 995.281 144.498 995.281 142.211C995.281 139.938 995.654 138.196 996.401 136.986C997.147 135.776 998.227 135.171 999.64 135.171ZM996.7 142.211C996.7 143.833 996.847 145.103 997.14 146.021L1001.58 137.186C1001.11 136.561 1000.47 136.248 999.64 136.248C998.72 136.248 998 136.74 997.48 137.724C996.96 138.695 996.7 140.19 996.7 142.211ZM999.64 148.174C1000.57 148.174 1001.3 147.689 1001.82 146.719C1002.34 145.735 1002.6 144.232 1002.6 142.211C1002.6 140.496 1002.43 139.167 1002.1 138.223L997.66 147.137C998.14 147.829 998.8 148.174 999.64 148.174Z" fill="url(#paint92_linear_175_198)"/>
<path d="M999.64 157.964C1001.07 157.964 1002.15 158.569 1002.88 159.779C1003.63 160.976 1004 162.717 1004 165.004C1004 167.291 1003.63 169.039 1002.88 170.249C1002.15 171.459 1001.07 172.064 999.64 172.064C998.227 172.064 997.147 171.459 996.401 170.249C995.654 169.039 995.281 167.291 995.281 165.004C995.281 162.731 995.654 160.989 996.401 159.779C997.147 158.569 998.227 157.964 999.64 157.964ZM996.7 165.004C996.7 166.626 996.847 167.896 997.14 168.813L1001.58 159.978C1001.11 159.353 1000.47 159.041 999.64 159.041C998.72 159.041 998 159.533 997.48 160.517C996.96 161.487 996.7 162.983 996.7 165.004ZM999.64 170.967C1000.57 170.967 1001.3 170.482 1001.82 169.511C1002.34 168.528 1002.6 167.025 1002.6 165.004C1002.6 163.289 1002.43 161.959 1002.1 161.015L997.66 169.93C998.14 170.622 998.8 170.967 999.64 170.967Z" fill="url(#paint93_linear_175_198)"/>
</g>
<defs>
<filter id="filter0_f_175_198" x="-534.19" y="-642.19" width="2141.38" height="1500.38" filterUnits="userSpaceOnUse" color-interpolation-filters="sRGB">
<feFlood flood-opacity="0" result="BackgroundImageFix"/>
<feBlend mode="normal" in="SourceGraphic" in2="BackgroundImageFix" result="shape"/>
<feGaussianBlur stdDeviation="200.095" result="effect1_foregroundBlur_175_198"/>
</filter>
<linearGradient id="paint0_linear_175_198" x1="76.5" y1="344" x2="76.5" y2="655.381" gradientUnits="userSpaceOnUse">
<stop stop-color="#F7DD43"/>
<stop offset="1" stop-color="#F7DD43" stop-opacity="0"/>
</linearGradient>
<linearGradient id="paint1_linear_175_198" x1="76.5" y1="344" x2="76.5" y2="655.381" gradientUnits="userSpaceOnUse">
<stop stop-color="#F7DD43"/>
<stop offset="1" stop-color="#F7DD43" stop-opacity="0"/>
</linearGradient>
<linearGradient id="paint2_linear_175_198" x1="76.5" y1="344" x2="76.5" y2="655.381" gradientUnits="userSpaceOnUse">
<stop stop-color="#F7DD43"/>
<stop offset="1" stop-color="#F7DD43" stop-opacity="0"/>
</linearGradient>
<linearGradient id="paint3_linear_175_198" x1="76.5" y1="344" x2="76.5" y2="655.381" gradientUnits="userSpaceOnUse">
<stop stop-color="#F7DD43"/>
<stop offset="1" stop-color="#F7DD43" stop-opacity="0"/>
</linearGradient>
<linearGradient id="paint4_linear_175_198" x1="76.5" y1="344" x2="76.5" y2="655.381" gradientUnits="userSpaceOnUse">
<stop stop-color="#F7DD43"/>
<stop offset="1" stop-color="#F7DD43" stop-opacity="0"/>
</linearGradient>
<linearGradient id="paint5_linear_175_198" x1="76.5" y1="344" x2="76.5" y2="655.381" gradientUnits="userSpaceOnUse">
<stop stop-color="#F7DD43"/>
<stop offset="1" stop-color="#F7DD43" stop-opacity="0"/>
</linearGradient>
<linearGradient id="paint6_linear_175_198" x1="76.5" y1="344" x2="76.5" y2="655.381" gradientUnits="userSpaceOnUse">
<stop stop-color="#F7DD43"/>
<stop offset="1" stop-color="#F7DD43" stop-opacity="0"/>
</linearGradient>
<linearGradient id="paint7_linear_175_198" x1="76.5" y1="344" x2="76.5" y2="655.381" gradientUnits="userSpaceOnUse">
<stop stop-color="#F7DD43"/>
<stop offset="1" stop-color="#F7DD43" stop-opacity="0"/>
</linearGradient>
<linearGradient id="paint8_linear_175_198" x1="76.5" y1="344" x2="76.5" y2="655.381" gradientUnits="userSpaceOnUse">
<stop stop-color="#F7DD43"/>
<stop offset="1" stop-color="#F7DD43" stop-opacity="0"/>
</linearGradient>
<linearGradient id="paint9_linear_175_198" x1="76.5" y1="344" x2="76.5" y2="655.381" gradientUnits="userSpaceOnUse">
<stop stop-color="#F7DD43"/>
<stop offset="1" stop-color="#F7DD43" stop-opacity="0"/>
</linearGradient>
<linearGradient id="paint10_linear_175_198" x1="76.5" y1="344" x2="76.5" y2="655.381" gradientUnits="userSpaceOnUse">
<stop stop-color="#F7DD43"/>
<stop offset="1" stop-color="#F7DD43" stop-opacity="0"/>
</linearGradient>
<linearGradient id="paint11_linear_175_198" x1="76.5" y1="344" x2="76.5" y2="655.381" gradientUnits="userSpaceOnUse">
<stop stop-color="#F7DD43"/>
<stop offset="1" stop-color="#F7DD43" stop-opacity="0"/>
</linearGradient>
<linearGradient id="paint12_linear_175_198" x1="76.5" y1="344" x2="76.5" y2="655.381" gradientUnits="userSpaceOnUse">
<stop stop-color="#F7DD43"/>
<stop offset="1" stop-color="#F7DD43" stop-opacity="0"/>
</linearGradient>
<linearGradient id="paint13_linear_175_198" x1="76.5" y1="344" x2="76.5" y2="655.381" gradientUnits="userSpaceOnUse">
<stop stop-color="#F7DD43"/>
<stop offset="1" stop-color="#F7DD43" stop-opacity="0"/>
</linearGradient>
<linearGradient id="paint14_linear_175_198" x1="76.5" y1="344" x2="76.5" y2="655.381" gradientUnits="userSpaceOnUse">
<stop stop-color="#F7DD43"/>
<stop offset="1" stop-color="#F7DD43" stop-opacity="0"/>
</linearGradient>
<linearGradient id="paint15_linear_175_198" x1="76.5" y1="344" x2="76.5" y2="655.381" gradientUnits="userSpaceOnUse">
<stop stop-color="#F7DD43"/>
<stop offset="1" stop-color="#F7DD43" stop-opacity="0"/>
</linearGradient>
<linearGradient id="paint16_linear_175_198" x1="76.5" y1="344" x2="76.5" y2="655.381" gradientUnits="userSpaceOnUse">
<stop stop-color="#F7DD43"/>
<stop offset="1" stop-color="#F7DD43" stop-opacity="0"/>
</linearGradient>
<linearGradient id="paint17_linear_175_198" x1="76.5" y1="344" x2="76.5" y2="655.381" gradientUnits="userSpaceOnUse">
<stop stop-color="#F7DD43"/>
<stop offset="1" stop-color="#F7DD43" stop-opacity="0"/>
</linearGradient>
<linearGradient id="paint18_linear_175_198" x1="76.5" y1="344" x2="76.5" y2="655.381" gradientUnits="userSpaceOnUse">
<stop stop-color="#F7DD43"/>
<stop offset="1" stop-color="#F7DD43" stop-opacity="0"/>
</linearGradient>
<linearGradient id="paint19_linear_175_198" x1="76.5" y1="344" x2="76.5" y2="655.381" gradientUnits="userSpaceOnUse">
<stop stop-color="#F7DD43"/>
<stop offset="1" stop-color="#F7DD43" stop-opacity="0"/>
</linearGradient>
<linearGradient id="paint20_linear_175_198" x1="76.5" y1="344" x2="76.5" y2="655.381" gradientUnits="userSpaceOnUse">
<stop stop-color="#F7DD43"/>
<stop offset="1" stop-color="#F7DD43" stop-opacity="0"/>
</linearGradient>
<linearGradient id="paint21_linear_175_198" x1="76.5" y1="344" x2="76.5" y2="655.381" gradientUnits="userSpaceOnUse">
<stop stop-color="#F7DD43"/>
<stop offset="1" stop-color="#F7DD43" stop-opacity="0"/>
</linearGradient>
<linearGradient id="paint22_linear_175_198" x1="76.5" y1="344" x2="76.5" y2="655.381" gradientUnits="userSpaceOnUse">
<stop stop-color="#F7DD43"/>
<stop offset="1" stop-color="#F7DD43" stop-opacity="0"/>
</linearGradient>
<linearGradient id="paint23_linear_175_198" x1="76.5" y1="344" x2="76.5" y2="655.381" gradientUnits="userSpaceOnUse">
<stop stop-color="#F7DD43"/>
<stop offset="1" stop-color="#F7DD43" stop-opacity="0"/>
</linearGradient>
<linearGradient id="paint24_linear_175_198" x1="76.5" y1="344" x2="76.5" y2="655.381" gradientUnits="userSpaceOnUse">
<stop stop-color="#F7DD43"/>
<stop offset="1" stop-color="#F7DD43" stop-opacity="0"/>
</linearGradient>
<linearGradient id="paint25_linear_175_198" x1="76.5" y1="344" x2="76.5" y2="655.381" gradientUnits="userSpaceOnUse">
<stop stop-color="#F7DD43"/>
<stop offset="1" stop-color="#F7DD43" stop-opacity="0"/>
</linearGradient>
<linearGradient id="paint26_linear_175_198" x1="76.5" y1="344" x2="76.5" y2="655.381" gradientUnits="userSpaceOnUse">
<stop stop-color="#F7DD43"/>
<stop offset="1" stop-color="#F7DD43" stop-opacity="0"/>
</linearGradient>
<linearGradient id="paint27_linear_175_198" x1="76.5" y1="344" x2="76.5" y2="655.381" gradientUnits="userSpaceOnUse">
<stop stop-color="#F7DD43"/>
<stop offset="1" stop-color="#F7DD43" stop-opacity="0"/>
</linearGradient>
<linearGradient id="paint28_linear_175_198" x1="76.5" y1="344" x2="76.5" y2="655.381" gradientUnits="userSpaceOnUse">
<stop stop-color="#F7DD43"/>
<stop offset="1" stop-color="#F7DD43" stop-opacity="0"/>
</linearGradient>
<linearGradient id="paint29_linear_175_198" x1="76.5" y1="344" x2="76.5" y2="655.381" gradientUnits="userSpaceOnUse">
<stop stop-color="#F7DD43"/>
<stop offset="1" stop-color="#F7DD43" stop-opacity="0"/>
</linearGradient>
<linearGradient id="paint30_linear_175_198" x1="76.5" y1="344" x2="76.5" y2="655.381" gradientUnits="userSpaceOnUse">
<stop stop-color="#F7DD43"/>
<stop offset="1" stop-color="#F7DD43" stop-opacity="0"/>
</linearGradient>
<linearGradient id="paint31_linear_175_198" x1="76.5" y1="344" x2="76.5" y2="655.381" gradientUnits="userSpaceOnUse">
<stop stop-color="#F7DD43"/>
<stop offset="1" stop-color="#F7DD43" stop-opacity="0"/>
</linearGradient>
<linearGradient id="paint32_linear_175_198" x1="76.5" y1="344" x2="76.5" y2="655.381" gradientUnits="userSpaceOnUse">
<stop stop-color="#F7DD43"/>
<stop offset="1" stop-color="#F7DD43" stop-opacity="0"/>
</linearGradient>
<linearGradient id="paint33_linear_175_198" x1="76.5" y1="344" x2="76.5" y2="655.381" gradientUnits="userSpaceOnUse">
<stop stop-color="#F7DD43"/>
<stop offset="1" stop-color="#F7DD43" stop-opacity="0"/>
</linearGradient>
<linearGradient id="paint34_linear_175_198" x1="76.5" y1="344" x2="76.5" y2="655.381" gradientUnits="userSpaceOnUse">
<stop stop-color="#F7DD43"/>
<stop offset="1" stop-color="#F7DD43" stop-opacity="0"/>
</linearGradient>
<linearGradient id="paint35_linear_175_198" x1="76.5" y1="344" x2="76.5" y2="655.381" gradientUnits="userSpaceOnUse">
<stop stop-color="#F7DD43"/>
<stop offset="1" stop-color="#F7DD43" stop-opacity="0"/>
</linearGradient>
<linearGradient id="paint36_linear_175_198" x1="76.5" y1="344" x2="76.5" y2="655.381" gradientUnits="userSpaceOnUse">
<stop stop-color="#F7DD43"/>
<stop offset="1" stop-color="#F7DD43" stop-opacity="0"/>
</linearGradient>
<linearGradient id="paint37_linear_175_198" x1="76.5" y1="344" x2="76.5" y2="655.381" gradientUnits="userSpaceOnUse">
<stop stop-color="#F7DD43"/>
<stop offset="1" stop-color="#F7DD43" stop-opacity="0"/>
</linearGradient>
<linearGradient id="paint38_linear_175_198" x1="76.5" y1="344" x2="76.5" y2="655.381" gradientUnits="userSpaceOnUse">
<stop stop-color="#F7DD43"/>
<stop offset="1" stop-color="#F7DD43" stop-opacity="0"/>
</linearGradient>
<linearGradient id="paint39_linear_175_198" x1="76.5" y1="344" x2="76.5" y2="655.381" gradientUnits="userSpaceOnUse">
<stop stop-color="#F7DD43"/>
<stop offset="1" stop-color="#F7DD43" stop-opacity="0"/>
</linearGradient>
<linearGradient id="paint40_linear_175_198" x1="76.5" y1="344" x2="76.5" y2="655.381" gradientUnits="userSpaceOnUse">
<stop stop-color="#F7DD43"/>
<stop offset="1" stop-color="#F7DD43" stop-opacity="0"/>
</linearGradient>
<linearGradient id="paint41_linear_175_198" x1="76.5" y1="344" x2="76.5" y2="655.381" gradientUnits="userSpaceOnUse">
<stop stop-color="#F7DD43"/>
<stop offset="1" stop-color="#F7DD43" stop-opacity="0"/>
</linearGradient>
<linearGradient id="paint42_linear_175_198" x1="76.5" y1="344" x2="76.5" y2="655.381" gradientUnits="userSpaceOnUse">
<stop stop-color="#F7DD43"/>
<stop offset="1" stop-color="#F7DD43" stop-opacity="0"/>
</linearGradient>
<linearGradient id="paint43_linear_175_198" x1="76.5" y1="344" x2="76.5" y2="655.381" gradientUnits="userSpaceOnUse">
<stop stop-color="#F7DD43"/>
<stop offset="1" stop-color="#F7DD43" stop-opacity="0"/>
</linearGradient>
<linearGradient id="paint44_linear_175_198" x1="76.5" y1="344" x2="76.5" y2="655.381" gradientUnits="userSpaceOnUse">
<stop stop-color="#F7DD43"/>
<stop offset="1" stop-color="#F7DD43" stop-opacity="0"/>
</linearGradient>
<linearGradient id="paint45_linear_175_198" x1="76.5" y1="344" x2="76.5" y2="655.381" gradientUnits="userSpaceOnUse">
<stop stop-color="#F7DD43"/>
<stop offset="1" stop-color="#F7DD43" stop-opacity="0"/>
</linearGradient>
<linearGradient id="paint46_linear_175_198" x1="76.5" y1="344" x2="76.5" y2="655.381" gradientUnits="userSpaceOnUse">
<stop stop-color="#F7DD43"/>
<stop offset="1" stop-color="#F7DD43" stop-opacity="0"/>
</linearGradient>
<linearGradient id="paint47_linear_175_198" x1="962.5" y1="44" x2="962.5" y2="342.818" gradientUnits="userSpaceOnUse">
<stop stop-color="#F7DD43"/>
<stop offset="1" stop-color="#F7DD43" stop-opacity="0"/>
</linearGradient>
<linearGradient id="paint48_linear_175_198" x1="962.5" y1="44" x2="962.5" y2="342.818" gradientUnits="userSpaceOnUse">
<stop stop-color="#F7DD43"/>
<stop offset="1" stop-color="#F7DD43" stop-opacity="0"/>
</linearGradient>
<linearGradient id="paint49_linear_175_198" x1="962.5" y1="44" x2="962.5" y2="342.818" gradientUnits="userSpaceOnUse">
<stop stop-color="#F7DD43"/>
<stop offset="1" stop-color="#F7DD43" stop-opacity="0"/>
</linearGradient>
<linearGradient id="paint50_linear_175_198" x1="962.5" y1="44" x2="962.5" y2="342.818" gradientUnits="userSpaceOnUse">
<stop stop-color="#F7DD43"/>
<stop offset="1" stop-color="#F7DD43" stop-opacity="0"/>
</linearGradient>
<linearGradient id="paint51_linear_175_198" x1="962.5" y1="44" x2="962.5" y2="342.818" gradientUnits="userSpaceOnUse">
<stop stop-color="#F7DD43"/>
<stop offset="1" stop-color="#F7DD43" stop-opacity="0"/>
</linearGradient>
<linearGradient id="paint52_linear_175_198" x1="962.5" y1="44" x2="962.5" y2="342.818" gradientUnits="userSpaceOnUse">
<stop stop-color="#F7DD43"/>
<stop offset="1" stop-color="#F7DD43" stop-opacity="0"/>
</linearGradient>
<linearGradient id="paint53_linear_175_198" x1="962.5" y1="44" x2="962.5" y2="342.818" gradientUnits="userSpaceOnUse">
<stop stop-color="#F7DD43"/>
<stop offset="1" stop-color="#F7DD43" stop-opacity="0"/>
</linearGradient>
<linearGradient id="paint54_linear_175_198" x1="962.5" y1="44" x2="962.5" y2="342.818" gradientUnits="userSpaceOnUse">
<stop stop-color="#F7DD43"/>
<stop offset="1" stop-color="#F7DD43" stop-opacity="0"/>
</linearGradient>
<linearGradient id="paint55_linear_175_198" x1="962.5" y1="44" x2="962.5" y2="342.818" gradientUnits="userSpaceOnUse">
<stop stop-color="#F7DD43"/>
<stop offset="1" stop-color="#F7DD43" stop-opacity="0"/>
</linearGradient>
<linearGradient id="paint56_linear_175_198" x1="962.5" y1="44" x2="962.5" y2="342.818" gradientUnits="userSpaceOnUse">
<stop stop-color="#F7DD43"/>
<stop offset="1" stop-color="#F7DD43" stop-opacity="0"/>
</linearGradient>
<linearGradient id="paint57_linear_175_198" x1="962.5" y1="44" x2="962.5" y2="342.818" gradientUnits="userSpaceOnUse">
<stop stop-color="#F7DD43"/>
<stop offset="1" stop-color="#F7DD43" stop-opacity="0"/>
</linearGradient>
<linearGradient id="paint58_linear_175_198" x1="962.5" y1="44" x2="962.5" y2="342.818" gradientUnits="userSpaceOnUse">
<stop stop-color="#F7DD43"/>
<stop offset="1" stop-color="#F7DD43" stop-opacity="0"/>
</linearGradient>
<linearGradient id="paint59_linear_175_198" x1="962.5" y1="44" x2="962.5" y2="342.818" gradientUnits="userSpaceOnUse">
<stop stop-color="#F7DD43"/>
<stop offset="1" stop-color="#F7DD43" stop-opacity="0"/>
</linearGradient>
<linearGradient id="paint60_linear_175_198" x1="962.5" y1="44" x2="962.5" y2="342.818" gradientUnits="userSpaceOnUse">
<stop stop-color="#F7DD43"/>
<stop offset="1" stop-color="#F7DD43" stop-opacity="0"/>
</linearGradient>
<linearGradient id="paint61_linear_175_198" x1="962.5" y1="44" x2="962.5" y2="342.818" gradientUnits="userSpaceOnUse">
<stop stop-color="#F7DD43"/>
<stop offset="1" stop-color="#F7DD43" stop-opacity="0"/>
</linearGradient>
<linearGradient id="paint62_linear_175_198" x1="962.5" y1="44" x2="962.5" y2="342.818" gradientUnits="userSpaceOnUse">
<stop stop-color="#F7DD43"/>
<stop offset="1" stop-color="#F7DD43" stop-opacity="0"/>
</linearGradient>
<linearGradient id="paint63_linear_175_198" x1="962.5" y1="44" x2="962.5" y2="342.818" gradientUnits="userSpaceOnUse">
<stop stop-color="#F7DD43"/>
<stop offset="1" stop-color="#F7DD43" stop-opacity="0"/>
</linearGradient>
<linearGradient id="paint64_linear_175_198" x1="962.5" y1="44" x2="962.5" y2="342.818" gradientUnits="userSpaceOnUse">
<stop stop-color="#F7DD43"/>
<stop offset="1" stop-color="#F7DD43" stop-opacity="0"/>
</linearGradient>
<linearGradient id="paint65_linear_175_198" x1="962.5" y1="44" x2="962.5" y2="342.818" gradientUnits="userSpaceOnUse">
<stop stop-color="#F7DD43"/>
<stop offset="1" stop-color="#F7DD43" stop-opacity="0"/>
</linearGradient>
<linearGradient id="paint66_linear_175_198" x1="962.5" y1="44" x2="962.5" y2="342.818" gradientUnits="userSpaceOnUse">
<stop stop-color="#F7DD43"/>
<stop offset="1" stop-color="#F7DD43" stop-opacity="0"/>
</linearGradient>
<linearGradient id="paint67_linear_175_198" x1="962.5" y1="44" x2="962.5" y2="342.818" gradientUnits="userSpaceOnUse">
<stop stop-color="#F7DD43"/>
<stop offset="1" stop-color="#F7DD43" stop-opacity="0"/>
</linearGradient>
<linearGradient id="paint68_linear_175_198" x1="962.5" y1="44" x2="962.5" y2="342.818" gradientUnits="userSpaceOnUse">
<stop stop-color="#F7DD43"/>
<stop offset="1" stop-color="#F7DD43" stop-opacity="0"/>
</linearGradient>
<linearGradient id="paint69_linear_175_198" x1="962.5" y1="44" x2="962.5" y2="342.818" gradientUnits="userSpaceOnUse">
<stop stop-color="#F7DD43"/>
<stop offset="1" stop-color="#F7DD43" stop-opacity="0"/>
</linearGradient>
<linearGradient id="paint70_linear_175_198" x1="962.5" y1="44" x2="962.5" y2="342.818" gradientUnits="userSpaceOnUse">
<stop stop-color="#F7DD43"/>
<stop offset="1" stop-color="#F7DD43" stop-opacity="0"/>
</linearGradient>
<linearGradient id="paint71_linear_175_198" x1="962.5" y1="44" x2="962.5" y2="342.818" gradientUnits="userSpaceOnUse">
<stop stop-color="#F7DD43"/>
<stop offset="1" stop-color="#F7DD43" stop-opacity="0"/>
</linearGradient>
<linearGradient id="paint72_linear_175_198" x1="962.5" y1="44" x2="962.5" y2="342.818" gradientUnits="userSpaceOnUse">
<stop stop-color="#F7DD43"/>
<stop offset="1" stop-color="#F7DD43" stop-opacity="0"/>
</linearGradient>
<linearGradient id="paint73_linear_175_198" x1="962.5" y1="44" x2="962.5" y2="342.818" gradientUnits="userSpaceOnUse">
<stop stop-color="#F7DD43"/>
<stop offset="1" stop-color="#F7DD43" stop-opacity="0"/>
</linearGradient>
<linearGradient id="paint74_linear_175_198" x1="962.5" y1="44" x2="962.5" y2="342.818" gradientUnits="userSpaceOnUse">
<stop stop-color="#F7DD43"/>
<stop offset="1" stop-color="#F7DD43" stop-opacity="0"/>
</linearGradient>
<linearGradient id="paint75_linear_175_198" x1="962.5" y1="44" x2="962.5" y2="342.818" gradientUnits="userSpaceOnUse">
<stop stop-color="#F7DD43"/>
<stop offset="1" stop-color="#F7DD43" stop-opacity="0"/>
</linearGradient>
<linearGradient id="paint76_linear_175_198" x1="962.5" y1="44" x2="962.5" y2="342.818" gradientUnits="userSpaceOnUse">
<stop stop-color="#F7DD43"/>
<stop offset="1" stop-color="#F7DD43" stop-opacity="0"/>
</linearGradient>
<linearGradient id="paint77_linear_175_198" x1="962.5" y1="44" x2="962.5" y2="342.818" gradientUnits="userSpaceOnUse">
<stop stop-color="#F7DD43"/>
<stop offset="1" stop-color="#F7DD43" stop-opacity="0"/>
</linearGradient>
<linearGradient id="paint78_linear_175_198" x1="962.5" y1="44" x2="962.5" y2="342.818" gradientUnits="userSpaceOnUse">
<stop stop-color="#F7DD43"/>
<stop offset="1" stop-color="#F7DD43" stop-opacity="0"/>
</linearGradient>
<linearGradient id="paint79_linear_175_198" x1="962.5" y1="44" x2="962.5" y2="342.818" gradientUnits="userSpaceOnUse">
<stop stop-color="#F7DD43"/>
<stop offset="1" stop-color="#F7DD43" stop-opacity="0"/>
</linearGradient>
<linearGradient id="paint80_linear_175_198" x1="962.5" y1="44" x2="962.5" y2="342.818" gradientUnits="userSpaceOnUse">
<stop stop-color="#F7DD43"/>
<stop offset="1" stop-color="#F7DD43" stop-opacity="0"/>
</linearGradient>
<linearGradient id="paint81_linear_175_198" x1="962.5" y1="44" x2="962.5" y2="342.818" gradientUnits="userSpaceOnUse">
<stop stop-color="#F7DD43"/>
<stop offset="1" stop-color="#F7DD43" stop-opacity="0"/>
</linearGradient>
<linearGradient id="paint82_linear_175_198" x1="962.5" y1="44" x2="962.5" y2="342.818" gradientUnits="userSpaceOnUse">
<stop stop-color="#F7DD43"/>
<stop offset="1" stop-color="#F7DD43" stop-opacity="0"/>
</linearGradient>
<linearGradient id="paint83_linear_175_198" x1="962.5" y1="44" x2="962.5" y2="342.818" gradientUnits="userSpaceOnUse">
<stop stop-color="#F7DD43"/>
<stop offset="1" stop-color="#F7DD43" stop-opacity="0"/>
</linearGradient>
<linearGradient id="paint84_linear_175_198" x1="962.5" y1="44" x2="962.5" y2="342.818" gradientUnits="userSpaceOnUse">
<stop stop-color="#F7DD43"/>
<stop offset="1" stop-color="#F7DD43" stop-opacity="0"/>
</linearGradient>
<linearGradient id="paint85_linear_175_198" x1="962.5" y1="44" x2="962.5" y2="342.818" gradientUnits="userSpaceOnUse">
<stop stop-color="#F7DD43"/>
<stop offset="1" stop-color="#F7DD43" stop-opacity="0"/>
</linearGradient>
<linearGradient id="paint86_linear_175_198" x1="962.5" y1="44" x2="962.5" y2="342.818" gradientUnits="userSpaceOnUse">
<stop stop-color="#F7DD43"/>
<stop offset="1" stop-color="#F7DD43" stop-opacity="0"/>
</linearGradient>
<linearGradient id="paint87_linear_175_198" x1="962.5" y1="44" x2="962.5" y2="342.818" gradientUnits="userSpaceOnUse">
<stop stop-color="#F7DD43"/>
<stop offset="1" stop-color="#F7DD43" stop-opacity="0"/>
</linearGradient>
<linearGradient id="paint88_linear_175_198" x1="962.5" y1="44" x2="962.5" y2="342.818" gradientUnits="userSpaceOnUse">
<stop stop-color="#F7DD43"/>
<stop offset="1" stop-color="#F7DD43" stop-opacity="0"/>
</linearGradient>
<linearGradient id="paint89_linear_175_198" x1="962.5" y1="44" x2="962.5" y2="342.818" gradientUnits="userSpaceOnUse">
<stop stop-color="#F7DD43"/>
<stop offset="1" stop-color="#F7DD43" stop-opacity="0"/>
</linearGradient>
<linearGradient id="paint90_linear_175_198" x1="962.5" y1="44" x2="962.5" y2="342.818" gradientUnits="userSpaceOnUse">
<stop stop-color="#F7DD43"/>
<stop offset="1" stop-color="#F7DD43" stop-opacity="0"/>
</linearGradient>
<linearGradient id="paint91_linear_175_198" x1="962.5" y1="44" x2="962.5" y2="342.818" gradientUnits="userSpaceOnUse">
<stop stop-color="#F7DD43"/>
<stop offset="1" stop-color="#F7DD43" stop-opacity="0"/>
</linearGradient>
<linearGradient id="paint92_linear_175_198" x1="962.5" y1="44" x2="962.5" y2="342.818" gradientUnits="userSpaceOnUse">
<stop stop-color="#F7DD43"/>
<stop offset="1" stop-color="#F7DD43" stop-opacity="0"/>
</linearGradient>
<linearGradient id="paint93_linear_175_198" x1="962.5" y1="44" x2="962.5" y2="342.818" gradientUnits="userSpaceOnUse">
<stop stop-color="#F7DD43"/>
<stop offset="1" stop-color="#F7DD43" stop-opacity="0"/>
</linearGradient>
</defs>
</svg>
